<svg width="186" height="67" viewBox="0 0 186 67" fill="none" xmlns="http://www.w3.org/2000/svg">
<path d="M80.06 12V23.36H85.4V26H77.3V12H80.06ZM89.728 20.22V23.36H95.628V26H86.968V12H95.528V14.64H89.728V17.62H95.028V20.22H89.728ZM109.788 26H106.788L105.948 23.48H100.368L99.5283 26H96.5483L101.448 12H104.868L109.788 26ZM103.168 15.18L101.248 20.9H105.088L103.168 15.18ZM111.148 12H116.708C118.628 12 120.228 12.6733 121.508 14.02C122.801 15.3533 123.448 17.0133 123.448 19C123.448 20.9867 122.801 22.6467 121.508 23.98C120.228 25.3267 118.628 26 116.708 26H111.148V12ZM113.908 23.36H116.708C117.921 23.36 118.908 22.96 119.668 22.16C120.428 21.3333 120.808 20.28 120.808 19C120.808 17.7067 120.428 16.66 119.668 15.86C118.908 15.0467 117.921 14.64 116.708 14.64H113.908V23.36ZM128.165 20.22V23.36H134.065V26H125.405V12H133.965V14.64H128.165V17.62H133.465V20.22H128.165ZM146.871 12H149.711V26H146.971V16.92L143.031 23.42H142.711L138.771 16.94V26H136.011V12H138.851L142.871 18.62L146.871 12ZM160.28 12H163.4L158.6 20.54V26H155.86V20.54L151.08 12H154.2L157.24 17.84L160.28 12ZM77.3 37H82.52C83.8533 37 84.9867 37.4533 85.92 38.36C86.84 39.2667 87.3 40.38 87.3 41.7C87.3 43.02 86.84 44.1333 85.92 45.04C84.9867 45.9467 83.8533 46.4 82.52 46.4H80.06V51H77.3V37ZM80.06 43.82H82.52C83.1067 43.82 83.5933 43.62 83.98 43.22C84.3667 42.8067 84.56 42.3 84.56 41.7C84.56 41.0867 84.3667 40.58 83.98 40.18C83.5933 39.78 83.1067 39.58 82.52 39.58H80.06V43.82ZM99.6711 51H96.6711L95.8311 48.48H90.2511L89.4111 51H86.4311L91.3311 37H94.7511L99.6711 51ZM93.0511 40.18L91.1311 45.9H94.9711L93.0511 40.18ZM107.174 37H110.294L105.494 45.54V51H102.754V45.54L97.9741 37H101.094L104.134 42.84L107.174 37Z" fill="url(#paint0_linear_80_247)"/>
<g clip-path="url(#clip0_80_247)">
<path d="M58.2529 6.01135H9.00897C7.49804 6.01135 6.27319 7.2362 6.27319 8.74713V57.9911C6.27319 59.502 7.49804 60.7269 9.00897 60.7269H58.2529C59.7638 60.7269 60.9887 59.502 60.9887 57.9911V8.74713C60.9887 7.2362 59.7638 6.01135 58.2529 6.01135Z" fill="url(#paint1_linear_80_247)"/>
<path d="M9.00897 6.07678H58.2529C59.7277 6.07678 60.9233 7.27231 60.9233 8.74713V57.9911C60.9233 59.4659 59.7277 60.6614 58.2529 60.6614H9.00897C7.53415 60.6614 6.33862 59.4659 6.33862 57.9911V8.74713C6.33862 7.27231 7.53415 6.07678 9.00897 6.07678Z" stroke="white" stroke-opacity="0.14" stroke-width="0.5"/>
<path d="M25.9731 42.1975C25.7148 42.1933 25.4502 42.2113 25.1928 42.1975C25.0869 42.1917 24.7635 42.2396 24.7159 42.1323L24.7593 31.7714L17.2378 24.2499L17.2161 45.5595C17.2378 49.5758 17.8027 49.7839 22.383 49.7839L42.7501 49.7187L35.2285 42.1975C32.1447 42.1611 29.0562 42.2459 25.9731 42.1975Z" fill="white" fill-opacity="0.1"/>
<path d="M24.7329 31.7821L24.6897 42.132V42.1378L24.692 42.1427C24.7088 42.1807 24.7478 42.2008 24.7886 42.2121C24.8304 42.2236 24.8812 42.2281 24.932 42.2294C24.9829 42.2304 25.0356 42.2281 25.0815 42.226C25.1282 42.2239 25.1665 42.222 25.1914 42.2234C25.3211 42.2304 25.4525 42.2294 25.5832 42.2273C25.7141 42.2249 25.8442 42.2215 25.9727 42.2236C27.5147 42.248 29.0578 42.2385 30.6009 42.2281C32.1403 42.2173 33.6795 42.2053 35.2173 42.2234L42.687 49.6925L22.383 49.7577L21.9654 49.7569C21.0177 49.7533 20.2582 49.7344 19.6495 49.6627C18.9537 49.5805 18.4587 49.4298 18.106 49.1571C17.7543 48.8851 17.5407 48.4889 17.4139 47.9084C17.287 47.3271 17.2476 46.5634 17.2422 45.5595L17.2636 24.3125L24.7329 31.7821Z" stroke="white" stroke-opacity="0.1" stroke-width="0.2"/>
<path d="M24.7009 31.7133L24.6574 42.1307L24.6573 42.1435L24.6625 42.1548C24.6854 42.2066 24.737 42.2304 24.7807 42.2425C24.8267 42.2553 24.881 42.2597 24.933 42.2608C24.9855 42.2618 25.0396 42.2597 25.0858 42.2576C25.1098 42.2566 25.1309 42.2556 25.1489 42.255H25.1933C25.3252 42.2621 25.4586 42.261 25.5904 42.259C25.6897 42.2571 25.7878 42.2548 25.885 42.2545L25.982 42.255C27.5364 42.2796 29.0918 42.2705 30.6469 42.2597C32.1942 42.249 33.7407 42.237 35.2861 42.255L42.7501 49.7187L22.3646 49.7839C21.2101 49.7839 20.3126 49.7708 19.6137 49.6884C18.9145 49.6059 18.4226 49.4549 18.0742 49.1853C17.7276 48.9173 17.5153 48.5261 17.3885 47.9453C17.2613 47.3633 17.2216 46.5967 17.2161 45.5851L17.2377 24.2499L24.7009 31.7133Z" stroke="white" stroke-opacity="0.01" stroke-width="0.1"/>
<path d="M39.4646 26.3648C39.7229 26.3689 39.9875 26.3509 40.245 26.3648C40.3508 26.3705 40.6742 26.3224 40.7219 26.4297L40.6784 36.7909L48.2 44.3124L48.2217 23.0027C48.2 18.9864 47.6352 18.7783 43.0548 18.7783L22.6877 18.8433L30.2091 26.3648C33.2932 26.4011 36.3815 26.3163 39.4646 26.3648Z" fill="url(#paint2_linear_80_247)"/>
<path d="M40.7368 36.849L40.7802 26.4312L40.7805 26.4187L40.7753 26.4074C40.7525 26.3556 40.7007 26.3318 40.657 26.3197C40.6112 26.3069 40.5567 26.3025 40.5046 26.3012C40.4523 26.3001 40.3981 26.3025 40.3521 26.3046C40.328 26.3056 40.3068 26.3067 40.2887 26.3069L40.2445 26.3072C40.1126 26.2999 39.9791 26.3012 39.8475 26.3033C39.748 26.3051 39.6499 26.3074 39.5528 26.3077L39.4557 26.3069C37.9016 26.2826 36.3459 26.2917 34.7908 26.3025C33.2435 26.3132 31.697 26.3252 30.1516 26.3072L22.6877 18.8435L43.0731 18.7783C44.2276 18.7783 45.125 18.7914 45.8241 18.8738C46.5234 18.9563 47.0152 19.1074 47.3635 19.3767C47.7103 19.6447 47.9225 20.036 48.0492 20.6167C48.1764 21.1989 48.2162 21.9654 48.2217 22.977L48.2 44.3124L40.7368 36.849Z" stroke="white" stroke-opacity="0.1" stroke-width="0.3"/>
</g>
<defs>
<linearGradient id="paint0_linear_80_247" x1="140.855" y1="39.4728" x2="107.524" y2="-104.013" gradientUnits="userSpaceOnUse">
<stop stop-color="#14274E"/>
<stop offset="1" stop-color="#2E5AB4"/>
</linearGradient>
<linearGradient id="paint1_linear_80_247" x1="38.533" y1="40.4523" x2="-28.5272" y2="-90.7675" gradientUnits="userSpaceOnUse">
<stop stop-color="#14274E"/>
<stop offset="1" stop-color="#2E5AB4"/>
</linearGradient>
<linearGradient id="paint2_linear_80_247" x1="41.228" y1="20.562" x2="38.224" y2="49.4753" gradientUnits="userSpaceOnUse">
<stop stop-color="white"/>
<stop offset="1" stop-color="#999999"/>
</linearGradient>
<clipPath id="clip0_80_247">
<rect width="67" height="67" fill="white"/>
</clipPath>
</defs>
</svg>
