<svg width="91" height="57" viewBox="0 0 91 57" fill="none" xmlns="http://www.w3.org/2000/svg">
<g clip-path="url(#clip0_2003_153)">
<path d="M57.9047 5.99536H33.3753V50.0176H57.9047V5.99536Z" fill="#FF5F00"/>
<path d="M34.9327 28.0065C34.9327 19.4509 38.9041 11.2843 45.6011 5.99536C33.4532 -3.5713 15.8543 -1.4713 6.2761 10.7398C-3.30207 22.8731 -1.19954 40.4509 11.0262 50.0176C21.2274 58.0287 35.4778 58.0287 45.6789 50.0176C38.9041 44.7287 34.9327 36.562 34.9327 28.0065Z" fill="#EB001B"/>
<path d="M91 28.0065C91 43.4843 78.4627 56.0065 62.9664 56.0065C56.6588 56.0065 50.5848 53.9065 45.6789 50.0176C57.8269 40.4509 59.9294 22.8731 50.3512 10.662C48.9495 8.95092 47.3921 7.31758 45.6789 5.99536C57.8269 -3.5713 75.5036 -1.4713 85.0039 10.7398C88.8975 15.6398 91 21.7065 91 28.0065Z" fill="#F79E1B"/>
<path d="M88.3524 45.351V44.4176H88.7417V44.2621H87.8073V44.4176H88.1966V45.351H88.3524ZM90.1434 45.351V44.2621H89.8319L89.5204 45.0399L89.209 44.2621H88.8975V45.351H89.1311V44.4954L89.4426 45.1954H89.6762L89.9877 44.4954V45.351H90.1434Z" fill="#F79E1B"/>
</g>
<defs>
<clipPath id="clip0_2003_153">
<rect width="90.7265" height="56.0259" fill="white" transform="translate(0.273529)"/>
</clipPath>
</defs>
</svg>
