<svg width="590" height="590" viewBox="0 0 590 590" fill="none" xmlns="http://www.w3.org/2000/svg">
<rect width="590" height="590" rx="25" fill="url(#paint0_linear_82_257)"/>
<path d="M294.5 154.125C261.064 154.125 233.938 181.168 233.938 214.5C233.938 247.832 261.064 274.875 294.5 274.875C327.936 274.875 355.062 247.832 355.062 214.5C355.062 181.168 327.936 154.125 294.5 154.125ZM264.219 295C213.908 295 173.375 335.407 173.375 385.562V395.625C173.375 417.951 191.354 435.875 213.75 435.875H375.25C397.646 435.875 415.625 417.951 415.625 395.625V385.562C415.625 335.407 375.092 295 324.781 295H264.219Z" fill="white"/>
<defs>
<linearGradient id="paint0_linear_82_257" x1="347.858" y1="371.379" x2="-375.254" y2="-1043.57" gradientUnits="userSpaceOnUse">
<stop stop-color="#14274E"/>
<stop offset="1" stop-color="#2E5AB4"/>
</linearGradient>
</defs>
</svg>
