<svg width="590" height="590" viewBox="0 0 590 590" fill="none" xmlns="http://www.w3.org/2000/svg">
<rect width="590" height="590" rx="50" fill="url(#paint0_linear_80_256)"/>
<path d="M295 346C285.65 346 278 353.65 278 363V414C278 423.35 270.35 431 261 431H176C166.65 431 159 423.35 159 414V176C159 166.65 166.65 159 176 159H261C270.35 159 278 166.65 278 176V227C278 236.35 285.65 244 295 244C304.35 244 312 236.35 312 227V176C312 147.95 289.05 125 261 125H176C147.95 125 125 147.95 125 176V414C125 442.05 147.95 465 176 465H261C289.05 465 312 442.05 312 414V363C312 353.65 304.35 346 295 346Z" fill="white"/>
<path d="M461.6 305.2C461.812 304.987 462.025 304.775 462.238 304.562C462.238 304.562 462.238 304.562 462.238 304.35C462.45 303.925 462.662 303.5 462.875 303.075C463.088 302.437 463.512 302.012 463.725 301.375C463.937 300.737 464.15 300.312 464.363 299.675C464.575 299.25 464.787 298.825 464.787 298.187C465.212 296.062 465.212 293.725 464.787 291.6C464.787 291.175 464.575 290.75 464.363 290.112C464.15 289.475 464.15 289.05 463.938 288.412C463.725 287.775 463.3 287.35 463.088 286.712C462.875 286.287 462.662 285.862 462.45 285.437C461.812 284.587 461.175 283.525 460.325 282.887L392.325 214.887C385.737 208.3 374.9 208.3 368.312 214.887C361.725 221.475 361.725 232.312 368.312 238.9L407.2 277.787H210C200.65 277.787 193 285.437 193 294.787C193 304.137 200.65 311.787 210 311.787H406.988L368.1 350.675C361.512 357.262 361.512 368.1 368.1 374.687C371.5 378.087 375.75 379.575 380.213 379.575C384.675 379.575 388.925 377.875 392.325 374.687L460.325 306.687C460.537 306.475 460.962 305.837 461.6 305.2Z" fill="white"/>
<defs>
<linearGradient id="paint0_linear_80_256" x1="347.858" y1="371.379" x2="-375.254" y2="-1043.57" gradientUnits="userSpaceOnUse">
<stop stop-color="#14274E"/>
<stop offset="1" stop-color="#2E5AB4"/>
</linearGradient>
</defs>
</svg>
